HIERARCHY
ROOT Hips
{
    OFFSET 0.000000 0.000000 0.000000
    CHANNELS 6 Xposition Yposition Zposition Zrotation Xrotation Yrotation
    JOINT Spine
    {
        OFFSET -0.000000 14.517291 0.000000
        CHANNELS 3 Zrotation Xrotation Yrotation
        JOINT Spine1
        {
            OFFSET -0.000000 37.558300 0.000000
            CHANNELS 3 Zrotation Xrotation Yrotation
            JOINT Neck
            {
                OFFSET -0.000000 37.404057 3.400369
                CHANNELS 3 Zrotation Xrotation Yrotation
                JOINT Head
                {
                    OFFSET -0.000000 24.785618 -3.540803
                    CHANNELS 3 Zrotation Xrotation Yrotation
                    End Site
                    {
                        OFFSET -0.000000 35.408028 0.000000
                    }
                }
            }
            JOINT LeftShoulder
            {
                OFFSET 6.992933 33.973492 -0.192664
                CHANNELS 3 Zrotation Xrotation Yrotation
                JOINT LeftArm
                {
                    OFFSET 21.527611 0.000000 0.000000
                    CHANNELS 3 Zrotation Xrotation Yrotation
                    JOINT LeftForeArm
                    {
                        OFFSET 56.353916 0.000000 0.000000
                        CHANNELS 3 Zrotation Xrotation Yrotation
                        JOINT LeftHand
                        {
                            OFFSET 47.774071 0.000000 0.000000
                            CHANNELS 3 Zrotation Xrotation Yrotation
                            End Site
                            {
                                OFFSET 26.556021 0.000000 0.000000
                            }
                        }
                    }
                }
            }
            JOINT RightShoulder
            {
                OFFSET -7.065357 33.973492 -0.192664
                CHANNELS 3 Zrotation Xrotation Yrotation
                JOINT RightArm
                {
                    OFFSET -21.527611 0.000000 0.000000
                    CHANNELS 3 Zrotation Xrotation Yrotation
                    JOINT RightForeArm
                    {
                        OFFSET -56.353916 0.000000 0.000000
                        CHANNELS 3 Zrotation Xrotation Yrotation
                        JOINT RightHand
                        {
                            OFFSET -47.774071 0.000000 0.000000
                            CHANNELS 3 Zrotation Xrotation Yrotation
                            End Site
                            {
                                OFFSET -26.556021 0.000000 0.000000
                            }
                        }
                    }
                }
            }
        }
    }
    JOINT LeftUpLeg
    {
        OFFSET 17.704014 0.000000 0.000000
        CHANNELS 3 Zrotation Xrotation Yrotation
        JOINT LeftLeg
        {
            OFFSET -0.000000 -81.181816 0.000000
            CHANNELS 3 Zrotation Xrotation Yrotation
            JOINT LeftFoot
            {
                OFFSET -0.000000 -62.821102 0.000000
                CHANNELS 3 Zrotation Xrotation Yrotation
                JOINT LeftToeBase
                {
                    OFFSET -0.000000 -11.507608 26.556021
                    CHANNELS 3 Zrotation Xrotation Yrotation
                    End Site
                    {
                        OFFSET -0.000000 0.000000 7.081605
                    }
                }
            }
        }
    }
    JOINT RightUpLeg
    {
        OFFSET -17.704014 0.000000 0.000000
        CHANNELS 3 Zrotation Xrotation Yrotation
        JOINT RightLeg
        {
            OFFSET -0.000000 -81.181816 0.000000
            CHANNELS 3 Zrotation Xrotation Yrotation
            JOINT RightFoot
            {
                OFFSET -0.000000 -62.821102 0.000000
                CHANNELS 3 Zrotation Xrotation Yrotation
                JOINT RightToeBase
                {
                    OFFSET -0.000000 -11.507608 26.556021
                    CHANNELS 3 Zrotation Xrotation Yrotation
                    End Site
                    {
                        OFFSET -0.000000 0.000000 7.081605
                    }
                }
            }
        }
    }
}
MOTION
Frames:    10
Frame Time:    0.008333
-7.094759    152.266556    -62.238739    -10.779568    2.888424    30.507917    2.883668    -2.451666    -6.901069    -8.857543    -2.947811    -2.547469    16.772024    2.026796    2.652490    4.240088    -3.623355    1.291366    15.086923    -4.379675    -17.290722    -22.687462    -26.545450    -36.354568    -14.713205    -37.669388    -97.696953    -32.453854    -42.017975    -37.587215    -14.298498    -0.923182    -10.309319    18.675432    19.197769    8.761516    14.018884    15.597877    -1.414504    9.104130    16.801460    13.495017    4.470273    -0.295233    0.931370    -11.825462    36.354496    -20.949299    19.173906    -26.637093    41.035965    0.000000    0.000000    0.000000    12.283527    -37.936630    9.148704    17.776327    33.921612    -16.574631    -13.377686    -2.109481    -21.033499    0.000000    0.000000    0.000000    
-7.251149    152.219635    -62.348320    -10.757966    2.893315    30.495874    2.846029    -2.473698    -6.880343    -8.872019    -2.936960    -2.540007    16.754797    2.012210    2.653958    4.259863    -3.615689    1.296229    15.089124    -4.387062    -17.294153    -22.715437    -26.578959    -36.358910    -14.768290    -37.627068    -97.765121    -32.402710    -42.060658    -37.570343    -14.285343    -0.935905    -10.326824    18.694021    19.262072    8.766206    14.010816    15.636609    -1.416860    8.997395    16.833548    13.567908    4.424917    -0.377919    0.832717    -11.849348    36.389893    -20.840046    19.414919    -26.626968    41.179100    0.000000    0.000000    0.000000    12.278289    -37.992867    9.129249    17.793245    33.904408    -16.615770    -13.358415    -2.062452    -20.970764    0.000000    0.000000    0.000000    
-7.405625    152.170471    -62.449245    -10.724689    2.873193    30.496256    2.811283    -2.471506    -6.874561    -8.877252    -2.924643    -2.536987    16.688997    2.015054    2.635589    4.327375    -3.640571    1.299079    15.076602    -4.391686    -17.267046    -22.793800    -26.702282    -36.407932    -14.824337    -37.470230    -97.769295    -32.398899    -41.971630    -37.543976    -14.308438    -0.951023    -10.320605    18.737362    19.291700    8.759754    14.036968    15.680541    -1.439651    9.027919    16.882244    13.548823    4.390476    -0.427502    0.759798    -11.872118    36.448647    -20.750029    19.589611    -26.661278    41.301746    0.000000    0.000000    0.000000    12.255156    -38.019115    9.062396    17.803156    33.892960    -16.620926    -13.347861    -2.022870    -20.892956    0.000000    0.000000    0.000000    
-7.557119    152.129242    -62.544720    -10.698739    2.848471    30.486395    2.778988    -2.457319    -6.852375    -8.868195    -2.937259    -2.529964    16.626312    2.072731    2.614953    4.391689    -3.703917    1.308202    15.029769    -4.383533    -17.280106    -22.781668    -26.739084    -36.400845    -14.860514    -37.419579    -97.810440    -32.388912    -41.972839    -37.526176    -14.323253    -0.926645    -10.320136    18.762758    19.268583    8.754085    14.075540    15.697737    -1.454637    9.111376    16.907948    13.507708    4.371511    -0.461929    0.726397    -11.895160    36.505966    -20.723934    19.719107    -26.716352    41.460445    0.000000    0.000000    0.000000    12.258081    -38.039997    8.966229    17.758661    33.885960    -16.583755    -13.317773    -1.947733    -20.810566    0.000000    0.000000    0.000000    
-7.697041    152.083298    -62.642487    -10.660324    2.829901    30.461353    2.764768    -2.441572    -6.814135    -8.921519    -2.948374    -2.519240    16.601315    2.081291    2.595469    4.449417    -3.713258    1.302932    15.046232    -4.379693    -17.282585    -22.756779    -26.727558    -36.380543    -14.868722    -37.418159    -97.825142    -32.338432    -41.990662    -37.548172    -14.302933    -1.032254    -10.265911    18.792179    19.320623    8.615028    14.120765    15.701833    -1.447905    9.060831    16.904835    13.492502    4.331331    -0.497703    0.717192    -11.915951    36.531006    -20.668591    19.960253    -26.682634    41.601662    0.000000    0.000000    0.000000    12.250499    -38.058941    8.853608    17.704262    33.879284    -16.556053    -13.331488    -1.853184    -20.687410    0.000000    0.000000    0.000000    
-7.835477    152.036636    -62.729992    -10.639605    2.795074    30.453186    2.770722    -2.427714    -6.796668    -8.956480    -2.945048    -2.514020    16.587202    2.042713    2.590222    4.467462    -3.687592    1.295625    15.040980    -4.394340    -17.262657    -22.735884    -26.689337    -36.370392    -14.791146    -37.463058    -97.805214    -32.351704    -41.959595    -37.532013    -14.274458    -0.937220    -10.340629    18.781298    19.377026    8.723524    14.063303    15.676998    -1.446702    9.123312    16.885517    13.480625    4.320348    -0.524475    0.732355    -11.919472    36.581371    -20.617500    20.133930    -26.709990    41.709072    0.000000    0.000000    0.000000    12.247763    -38.064987    8.750146    17.671352    33.849476    -16.570372    -13.344540    -1.745765    -20.529785    0.000000    0.000000    0.000000    
-7.978996    151.989517    -62.808575    -10.627695    2.761969    30.455210    2.756714    -2.425217    -6.798571    -8.945080    -2.949474    -2.514575    16.559132    2.102521    2.573121    4.459880    -3.747432    1.291526    15.002000    -4.408714    -17.292730    -22.667906    -26.663408    -36.281204    -14.806025    -37.500824    -97.837006    -32.386681    -42.003883    -37.540379    -14.273984    -0.902278    -10.309105    18.787199    19.374571    8.712192    14.079150    15.664560    -1.466314    9.137240    16.879402    13.508288    4.327220    -0.568067    0.738944    -11.935797    36.652058    -20.564926    20.227657    -26.776251    41.798740    0.000000    0.000000    0.000000    12.250531    -38.074402    8.610907    17.619595    33.821983    -16.572424    -13.344604    -1.644323    -20.368567    0.000000    0.000000    0.000000    
-8.113759    151.945908    -62.890522    -10.626613    2.741075    30.445076    2.774609    -2.449862    -6.773718    -8.975389    -2.925286    -2.505481    16.570524    2.159274    2.570494    4.414156    -3.835770    1.291115    14.986084    -4.458932    -17.304670    -22.640024    -26.672428    -36.206821    -14.823253    -37.420307    -97.831802    -32.357338    -41.952560    -37.532394    -14.282639    -0.900461    -10.311316    18.814589    19.277502    8.688004    14.130396    15.696035    -1.489964    9.160191    16.912153    13.449325    4.341165    -0.625261    0.767753    -11.942162    36.730064    -20.519117    20.366386    -26.822729    41.861343    0.000000    0.000000    0.000000    12.247697    -38.094971    8.530203    17.629807    33.775383    -16.607811    -13.363316    -1.560092    -20.224846    0.000000    0.000000    0.000000    
-8.246478    151.900131    -62.969273    -10.622828    2.709000    30.431629    2.797518    -2.447315    -6.760159    -9.014548    -2.930324    -2.502502    16.571012    2.161528    2.575424    4.417732    -3.836219    1.297179    15.000870    -4.430023    -17.268969    -22.656118    -26.729124    -36.217918    -14.872287    -37.352615    -97.854668    -32.320976    -41.954632    -37.505215    -14.263878    -0.890001    -10.301330    18.852224    19.305195    8.648642    14.069612    15.660705    -1.458547    9.178515    16.875513    13.460361    4.360040    -0.668169    0.795788    -11.941481    36.810169    -20.480482    20.505613    -26.872719    41.915623    0.000000    0.000000    0.000000    12.254416    -38.103416    8.446341    17.636709    33.733204    -16.662626    -13.399777    -1.474150    -20.071844    0.000000    0.000000    0.000000    
-8.371885    151.857452    -63.044132    -10.620495    2.673991    30.410374    2.820821    -2.433904    -6.743839    -9.028837    -2.944803    -2.498645    16.507524    2.134539    2.572691    4.469768    -3.805051    1.306571    14.983372    -4.425683    -17.268206    -22.592442    -26.673592    -36.154510    -14.832576    -37.450779    -97.858917    -32.387077    -41.981907    -37.554462    -14.262445    -0.878426    -10.322365    18.854763    19.324602    8.666141    14.045334    15.626151    -1.444375    9.172747    16.842436    13.510447    4.386586    -0.704571    0.810433    -11.967551    36.881359    -20.418249    20.614294    -26.929108    41.961365    0.000000    0.000000    0.000000    12.271679    -38.107815    8.317198    17.597132    33.715858    -16.637600    -13.404334    -1.391299    -19.934219    0.000000    0.000000    0.000000    
